<mxfile host="app.diagrams.net" modified="2021-03-19T13:21:16.112Z" agent="5.0 (Macintosh; Intel Mac OS X 11_2_3) AppleWebKit/537.36 (KHTML, like Gecko) Chrome/89.0.4389.90 Safari/537.36" etag="W2aFhdrmOMZfC0vmvafE" version="14.4.9" type="github">
  <diagram id="6I0OCvxSQrVGMHxT2VVA" name="Page-1">
    <mxGraphModel dx="2372" dy="1350" grid="1" gridSize="10" guides="1" tooltips="1" connect="1" arrows="1" fold="1" page="1" pageScale="1" pageWidth="3300" pageHeight="4681" math="0" shadow="0">
      <root>
        <mxCell id="0" />
        <mxCell id="1" parent="0" />
        <mxCell id="ofKJthV_s19hA-Cqd5da-23" value="" style="edgeStyle=orthogonalEdgeStyle;rounded=0;orthogonalLoop=1;jettySize=auto;html=1;" edge="1" parent="1" source="dKdSaXE48SgPbhcamS2K-30" target="ofKJthV_s19hA-Cqd5da-21">
          <mxGeometry relative="1" as="geometry">
            <Array as="points">
              <mxPoint x="732" y="1090" />
              <mxPoint x="732" y="1090" />
            </Array>
          </mxGeometry>
        </mxCell>
        <mxCell id="dKdSaXE48SgPbhcamS2K-30" value="" style="whiteSpace=wrap;html=1;strokeColor=none;strokeWidth=1;fillColor=#f5f5f5;fontSize=14;" parent="1" vertex="1">
          <mxGeometry x="194" y="820" width="1075" height="190" as="geometry" />
        </mxCell>
        <mxCell id="dKdSaXE48SgPbhcamS2K-31" value="" style="whiteSpace=wrap;html=1;strokeColor=none;strokeWidth=1;fillColor=#f5f5f5;fontSize=14;" parent="1" vertex="1">
          <mxGeometry x="194" y="560" width="1075" height="160" as="geometry" />
        </mxCell>
        <mxCell id="dKdSaXE48SgPbhcamS2K-32" value="" style="whiteSpace=wrap;html=1;strokeColor=none;strokeWidth=1;fillColor=#f5f5f5;fontSize=14;fontStyle=1" parent="1" vertex="1">
          <mxGeometry x="184" y="330" width="1075" height="140" as="geometry" />
        </mxCell>
        <mxCell id="dKdSaXE48SgPbhcamS2K-47" value="Bussines logic, Service Layer/Magic" style="shape=component;align=center;fillColor=#ffe6cc;fontSize=17;strokeColor=#d79b00;" parent="1" vertex="1">
          <mxGeometry x="215" y="600" width="1010" height="80" as="geometry" />
        </mxCell>
        <mxCell id="dKdSaXE48SgPbhcamS2K-57" value="POST" style="html=1;whiteSpace=wrap;fillColor=#dae8fc;shape=mxgraph.archimate3.application;appType=proc;archiType=rounded;fontSize=14;strokeColor=#6c8ebf;" parent="1" vertex="1">
          <mxGeometry x="540" y="362.5" width="150" height="75" as="geometry" />
        </mxCell>
        <mxCell id="dKdSaXE48SgPbhcamS2K-61" style="edgeStyle=elbowEdgeStyle;rounded=1;elbow=vertical;html=1;dashed=1;startSize=10;endArrow=block;endFill=0;endSize=10;jettySize=auto;orthogonalLoop=1;strokeColor=#808080;fontSize=14;entryX=0.5;entryY=0;entryDx=0;entryDy=0;" parent="1" source="ofKJthV_s19hA-Cqd5da-4" target="dKdSaXE48SgPbhcamS2K-32" edge="1">
          <mxGeometry relative="1" as="geometry" />
        </mxCell>
        <mxCell id="dKdSaXE48SgPbhcamS2K-62" value="" style="html=1;whiteSpace=wrap;fillColor=#ffff99;shape=mxgraph.archimate3.actor;fontSize=14;" parent="1" vertex="1">
          <mxGeometry x="760" y="110" width="50" height="95" as="geometry" />
        </mxCell>
        <mxCell id="ofKJthV_s19hA-Cqd5da-4" value="&lt;font style=&quot;font-size: 18px&quot;&gt;Client (Front end)&lt;/font&gt;" style="text;html=1;align=center;verticalAlign=middle;resizable=0;points=[];autosize=1;" vertex="1" parent="1">
          <mxGeometry x="640" y="240" width="160" height="20" as="geometry" />
        </mxCell>
        <mxCell id="ofKJthV_s19hA-Cqd5da-6" style="edgeStyle=elbowEdgeStyle;rounded=1;elbow=vertical;html=1;dashed=1;startSize=10;endArrow=block;endFill=0;endSize=10;jettySize=auto;orthogonalLoop=1;strokeColor=#808080;fontSize=14;entryX=0.5;entryY=0;entryDx=0;entryDy=0;" edge="1" parent="1" source="dKdSaXE48SgPbhcamS2K-62" target="ofKJthV_s19hA-Cqd5da-4">
          <mxGeometry relative="1" as="geometry">
            <mxPoint x="721.4999999999998" y="255" as="sourcePoint" />
            <mxPoint x="721.4999999999998" y="330" as="targetPoint" />
          </mxGeometry>
        </mxCell>
        <mxCell id="ofKJthV_s19hA-Cqd5da-7" value="GET" style="html=1;whiteSpace=wrap;fillColor=#d5e8d4;shape=mxgraph.archimate3.application;appType=proc;archiType=rounded;fontSize=14;strokeColor=#82b366;" vertex="1" parent="1">
          <mxGeometry x="300" y="361.5" width="150" height="75" as="geometry" />
        </mxCell>
        <mxCell id="ofKJthV_s19hA-Cqd5da-8" value="PUT" style="html=1;whiteSpace=wrap;fillColor=#ffff99;shape=mxgraph.archimate3.application;appType=proc;archiType=rounded;fontSize=14;" vertex="1" parent="1">
          <mxGeometry x="780" y="361.5" width="150" height="75" as="geometry" />
        </mxCell>
        <mxCell id="ofKJthV_s19hA-Cqd5da-11" value="DELETE" style="html=1;whiteSpace=wrap;fillColor=#f8cecc;shape=mxgraph.archimate3.application;appType=proc;archiType=rounded;fontSize=14;strokeColor=#b85450;" vertex="1" parent="1">
          <mxGeometry x="1010" y="362.5" width="150" height="75" as="geometry" />
        </mxCell>
        <mxCell id="ofKJthV_s19hA-Cqd5da-14" value="" style="endArrow=classic;html=1;exitX=0.071;exitY=1.014;exitDx=0;exitDy=0;exitPerimeter=0;entryX=0.063;entryY=0.006;entryDx=0;entryDy=0;entryPerimeter=0;" edge="1" parent="1" source="dKdSaXE48SgPbhcamS2K-32" target="dKdSaXE48SgPbhcamS2K-31">
          <mxGeometry width="50" height="50" relative="1" as="geometry">
            <mxPoint x="740" y="620" as="sourcePoint" />
            <mxPoint x="790" y="570" as="targetPoint" />
          </mxGeometry>
        </mxCell>
        <mxCell id="ofKJthV_s19hA-Cqd5da-15" value="" style="endArrow=classic;html=1;exitX=0.062;exitY=1.006;exitDx=0;exitDy=0;exitPerimeter=0;entryX=0.061;entryY=-0.005;entryDx=0;entryDy=0;entryPerimeter=0;" edge="1" parent="1" source="dKdSaXE48SgPbhcamS2K-31" target="dKdSaXE48SgPbhcamS2K-30">
          <mxGeometry width="50" height="50" relative="1" as="geometry">
            <mxPoint x="270.32500000000005" y="481.96000000000004" as="sourcePoint" />
            <mxPoint x="271.7249999999999" y="570.96" as="targetPoint" />
            <Array as="points" />
          </mxGeometry>
        </mxCell>
        <mxCell id="ofKJthV_s19hA-Cqd5da-18" value="" style="endArrow=classic;html=1;exitX=0.911;exitY=-0.009;exitDx=0;exitDy=0;exitPerimeter=0;entryX=0.912;entryY=1.031;entryDx=0;entryDy=0;entryPerimeter=0;" edge="1" parent="1" source="dKdSaXE48SgPbhcamS2K-30" target="dKdSaXE48SgPbhcamS2K-31">
          <mxGeometry width="50" height="50" relative="1" as="geometry">
            <mxPoint x="270.32500000000005" y="481.96000000000004" as="sourcePoint" />
            <mxPoint x="271.7249999999999" y="570.96" as="targetPoint" />
          </mxGeometry>
        </mxCell>
        <mxCell id="ofKJthV_s19hA-Cqd5da-19" value="" style="endArrow=classic;html=1;entryX=0.88;entryY=1;entryDx=0;entryDy=0;entryPerimeter=0;exitX=0.87;exitY=-0.031;exitDx=0;exitDy=0;exitPerimeter=0;" edge="1" parent="1" source="dKdSaXE48SgPbhcamS2K-31" target="dKdSaXE48SgPbhcamS2K-32">
          <mxGeometry width="50" height="50" relative="1" as="geometry">
            <mxPoint x="1130" y="570" as="sourcePoint" />
            <mxPoint x="281.7249999999999" y="580.96" as="targetPoint" />
          </mxGeometry>
        </mxCell>
        <mxCell id="ofKJthV_s19hA-Cqd5da-20" value="" style="endArrow=classic;html=1;exitX=0.071;exitY=1.014;exitDx=0;exitDy=0;exitPerimeter=0;entryX=0.063;entryY=0.006;entryDx=0;entryDy=0;entryPerimeter=0;" edge="1" parent="1">
          <mxGeometry width="50" height="50" relative="1" as="geometry">
            <mxPoint x="290.32500000000005" y="501.96000000000004" as="sourcePoint" />
            <mxPoint x="291.7249999999999" y="590.96" as="targetPoint" />
          </mxGeometry>
        </mxCell>
        <mxCell id="ofKJthV_s19hA-Cqd5da-22" style="edgeStyle=orthogonalEdgeStyle;rounded=0;orthogonalLoop=1;jettySize=auto;html=1;entryX=0.455;entryY=1.009;entryDx=0;entryDy=0;entryPerimeter=0;" edge="1" parent="1" source="ofKJthV_s19hA-Cqd5da-21" target="dKdSaXE48SgPbhcamS2K-30">
          <mxGeometry relative="1" as="geometry">
            <Array as="points">
              <mxPoint x="683" y="1100" />
              <mxPoint x="683" y="1100" />
            </Array>
          </mxGeometry>
        </mxCell>
        <mxCell id="ofKJthV_s19hA-Cqd5da-21" value="" style="shape=cylinder3;whiteSpace=wrap;html=1;boundedLbl=1;backgroundOutline=1;size=15;" vertex="1" parent="1">
          <mxGeometry x="525.75" y="1120" width="388.5" height="120" as="geometry" />
        </mxCell>
        <mxCell id="ofKJthV_s19hA-Cqd5da-25" value="&lt;font style=&quot;font-size: 21px&quot;&gt;Data acces Layer&lt;/font&gt;" style="shape=parallelogram;perimeter=parallelogramPerimeter;whiteSpace=wrap;html=1;fixedSize=1;fillColor=#f5f5f5;strokeColor=#666666;fontColor=#333333;" vertex="1" parent="1">
          <mxGeometry x="420" y="877.5" width="580" height="75" as="geometry" />
        </mxCell>
        <mxCell id="ofKJthV_s19hA-Cqd5da-26" value="&lt;b&gt;&lt;font style=&quot;font-size: 18px&quot;&gt;API Layer&lt;/font&gt;&lt;/b&gt;" style="text;html=1;align=center;verticalAlign=middle;resizable=0;points=[];autosize=1;fontSize=17;" vertex="1" parent="1">
          <mxGeometry x="1164" y="330" width="100" height="30" as="geometry" />
        </mxCell>
      </root>
    </mxGraphModel>
  </diagram>
</mxfile>
